<svg width="76" height="24" viewBox="0 0 76 24" fill="none" xmlns="http://www.w3.org/2000/svg">
<path d="M5.67822 19.4453C9.11503 19.4453 11.1572 17.9687 11.1572 15.1408C11.1572 12.3379 9.36408 11.512 6.10159 11.0365C4.20885 10.7612 3.58624 10.4359 3.58624 9.61001C3.58624 8.80918 4.25866 8.2586 5.42917 8.2586C6.67439 8.2586 7.2721 8.75912 7.47134 9.83525H10.7836C10.4599 6.83212 8.29319 5.78102 5.40427 5.78102C2.73949 5.78102 0.249045 7.13243 0.249045 9.86027C0.249045 12.4129 1.59388 13.414 5.0556 13.9395C6.92344 14.2148 7.69548 14.5902 7.69548 15.4911C7.69548 16.3921 7.04796 16.9176 5.65331 16.9176C4.08433 16.9176 3.51153 16.2419 3.3621 15.0657H0C0.124522 17.8936 2.16669 19.4453 5.67822 19.4453Z" fill="#111827"/>
<path d="M18.6523 16.6924C16.6101 16.6924 15.4645 15.1908 15.4645 12.6882V12.488C15.4645 9.9854 16.6599 8.53389 18.6523 8.53389C20.6695 8.53389 21.84 10.0355 21.84 12.5381V12.7132C21.84 15.1908 20.6695 16.6924 18.6523 16.6924ZM18.6274 19.4453C22.5374 19.4453 25.501 16.8175 25.501 12.6882V12.488C25.501 8.40876 22.5623 5.78102 18.6523 5.78102C14.7423 5.78102 11.7786 8.45881 11.7786 12.5631V12.7633C11.7786 16.8425 14.7423 19.4453 18.6274 19.4453Z" fill="#111827"/>
<path d="M26.9503 19.17H30.5365V8.65902H33.3756V6.08134H30.5365V4.47967C30.5365 3.47862 31.0097 2.75287 32.1553 2.75287C32.6783 2.75287 33.1266 2.85297 33.4753 2.9781V0.25026C32.9025 0.0750787 32.3795 0 31.6074 0C28.7185 0 26.9503 1.52659 26.9503 4.57977V6.08134H25.2319V8.65902H26.9503V19.17Z" fill="#111827"/>
<path d="M40.0022 19.4202C40.9734 19.4202 41.6957 19.245 42.1938 19.0699V16.2669C41.7704 16.4421 41.3719 16.5172 40.824 16.5172C39.9025 16.5172 39.3796 16.0167 39.3796 14.9656V8.65902H42.119V6.08134H39.3796V3.25339H35.7933V6.08134H34.1247V8.65902H35.7933V15.2909C35.7933 18.0188 37.2627 19.4202 40.0022 19.4202Z" fill="#111827"/>
<path d="M43.5572 19.17H47.1434V0.150156H43.5572V19.17Z" fill="#111827"/>
<path d="M54.9505 16.6924C52.9083 16.6924 51.7627 15.1908 51.7627 12.6882V12.488C51.7627 9.9854 52.9581 8.53389 54.9505 8.53389C56.9677 8.53389 58.1383 10.0355 58.1383 12.5381V12.7132C58.1383 15.1908 56.9677 16.6924 54.9505 16.6924ZM54.9256 19.4453C58.8356 19.4453 61.7992 16.8175 61.7992 12.6882V12.488C61.7992 8.40876 58.8605 5.78102 54.9505 5.78102C51.0405 5.78102 48.0769 8.45881 48.0769 12.5631V12.7633C48.0769 16.8425 51.0405 19.4453 54.9256 19.4453Z" fill="#111827"/>
<path d="M69.1264 24C73.4099 24 75.9751 22.0229 76 18.1439V6.08134H72.4138V8.03337C71.6666 6.70699 70.3965 5.78102 68.2796 5.78102C65.042 5.78102 62.5516 8.40876 62.5516 12.1627V12.3379C62.5516 16.2169 65.0669 18.5944 68.2298 18.5944C70.1474 18.5944 71.6915 17.4432 72.4138 16.1668V18.1439C72.4138 20.196 71.318 21.3472 69.1264 21.3472C67.2834 21.3472 66.4616 20.5965 66.2375 19.4453H62.6512C62.9999 22.1481 64.9175 24 69.1264 24ZM69.3007 15.8665C67.5076 15.8665 66.2375 14.5151 66.2375 12.3379V12.1376C66.2375 9.9854 67.3582 8.53389 69.3754 8.53389C71.3429 8.53389 72.5134 9.8853 72.5134 12.1126V12.2878C72.5134 14.5151 71.1934 15.8665 69.3007 15.8665Z" fill="#111827"/>
</svg>
